<svg class="svg-icon" style="width: 1em; height: 1em;vertical-align: middle;fill: currentColor;overflow: hidden;" viewBox="0 0 1024 1024" version="1.1" xmlns="http://www.w3.org/2000/svg"><path d="M512 640a192 192 0 0 0-192 192h64a128 128 0 0 1 256 0h64a192 192 0 0 0-192-192zM512 576a128 128 0 1 0-0.064-256.064A128 128 0 0 0 512 576z m0-191.488a63.488 63.488 0 1 1 0 126.976 63.488 63.488 0 0 1 0-126.976z" fill="" /><path d="M864 192h-384a128 128 0 0 0-128-128h-192a128 128 0 0 0-128 128v640a128 128 0 0 0 128 128h704a128 128 0 0 0 128-128V320a128 128 0 0 0-128-128z m-704-64h192a64 64 0 0 1 64 64h-320a64 64 0 0 1 64-64z m768 704a64 64 0 0 1-64 64h-704a64 64 0 0 1-64-64V256h768a64 64 0 0 1 64 64v512z" fill="" /></svg>